<?xml version="1.0" encoding="UTF-8"?>
<svg width="800" height="600" viewBox="0 0 800 600" fill="none" xmlns="http://www.w3.org/2000/svg">
    <!-- Background -->
    <rect width="800" height="600" fill="#F8FAFC" />

    <!-- CV Paper with subtle shadow -->
    <rect x="101" y="51" width="600" height="500" fill="#E2E8F0" rx="2" />
    <rect x="100" y="50" width="600" height="500" fill="white" stroke="#E2E8F0" stroke-width="1"
        rx="2" />

    <!-- Header Section -->
    <circle cx="160" cy="110" r="30" fill="#E2E8F0" />
    <rect x="210" y="90" width="200" height="20" fill="#3B82F6" />
    <rect x="210" y="120" width="150" height="12" fill="#94A3B8" />

    <!-- Content Sections -->
    <!-- Experience -->
    <rect x="120" y="180" width="100" height="16" fill="#3B82F6" />
    <rect x="120" y="210" width="520" height="8" fill="#94A3B8" />
    <rect x="120" y="225" width="480" height="8" fill="#94A3B8" />
    <rect x="120" y="240" width="500" height="8" fill="#94A3B8" />

    <!-- Skills -->
    <rect x="120" y="280" width="80" height="16" fill="#3B82F6" />
    <rect x="120" y="310" width="90" height="20" rx="10" fill="#E2E8F0" />
    <rect x="220" y="310" width="70" height="20" rx="10" fill="#E2E8F0" />
    <rect x="300" y="310" width="80" height="20" rx="10" fill="#E2E8F0" />

    <!-- Education -->
    <rect x="120" y="360" width="90" height="16" fill="#3B82F6" />
    <rect x="120" y="390" width="520" height="8" fill="#94A3B8" />
    <rect x="120" y="405" width="480" height="8" fill="#94A3B8" />
</svg> 